<?xml version="1.0" encoding="UTF-8" standalone="no"?>
<svg width="37px" height="41px" viewBox="0 0 37 41" version="1.1" xmlns="http://www.w3.org/2000/svg" xmlns:xlink="http://www.w3.org/1999/xlink" xmlns:sketch="http://www.bohemiancoding.com/sketch/ns">
    <!-- Generator: Sketch 3.3.3 (12081) - http://www.bohemiancoding.com/sketch -->
    <title>Selcted works</title>
    <desc>Created with Sketch.</desc>
    <defs></defs>
    <g id="Works" stroke="none" stroke-width="1" fill="none" fill-rule="evenodd" sketch:type="MSPage">
        <g id="Selcted-works" sketch:type="MSArtboardGroup" transform="translate(-69.000000, -1497.000000)">
            <rect id="Rectangle-18" fill-opacity="0.000000" fill="#FFFFFF" sketch:type="MSShapeGroup" x="-35" y="1489" width="1440" height="56"></rect>
            <g id="facebook" sketch:type="MSLayerGroup" transform="translate(70.000000, 1500.000000)">
                <rect id="Rectangle" sketch:type="MSShapeGroup" x="0" y="0" width="35" height="35"></rect>
                <circle id="Oval" stroke="#000000" stroke-width="2" sketch:type="MSShapeGroup" cx="17.5" cy="17.5" r="17.5"></circle>
                <path d="M18.5457886,27.8409091 L14.6659878,27.8409091 L14.6659878,18.6920271 L12.7272727,18.6920271 L12.7272727,15.5396293 L14.6659878,15.5396293 L14.6659878,13.6470359 C14.6659878,11.0754645 15.7601082,9.54545455 18.8705871,9.54545455 L21.4594918,9.54545455 L21.4594918,12.6990071 L19.8414264,12.6990071 C18.6305444,12.6990071 18.5505302,13.1395345 18.5505302,13.9616983 L18.5451959,15.5396293 L21.4772727,15.5396293 L21.1341006,18.6920271 L18.5451959,18.6920271 L18.5451959,27.8409091 L18.5457886,27.8409091 Z" id="Shape" fill="#000000" sketch:type="MSShapeGroup"></path>
            </g>
        </g>
    </g>
</svg>