<?xml version="1.0" encoding="UTF-8" standalone="no"?>
<svg width="37px" height="41px" viewBox="0 0 37 41" version="1.1" xmlns="http://www.w3.org/2000/svg" xmlns:xlink="http://www.w3.org/1999/xlink" xmlns:sketch="http://www.bohemiancoding.com/sketch/ns">
    <!-- Generator: Sketch 3.3.3 (12081) - http://www.bohemiancoding.com/sketch -->
    <title>Selcted works</title>
    <desc>Created with Sketch.</desc>
    <defs></defs>
    <g id="Works" stroke="none" stroke-width="1" fill="none" fill-rule="evenodd" sketch:type="MSPage">
        <g id="Selcted-works" sketch:type="MSArtboardGroup" transform="translate(-125.000000, -1497.000000)">
            <rect id="Rectangle-18" fill-opacity="0.00000000" fill="#FFFFFF" sketch:type="MSShapeGroup" x="-35" y="1489" width="1440" height="56"></rect>
            <g id="mail" sketch:type="MSLayerGroup" transform="translate(126.000000, 1500.000000)">
                <rect id="Rectangle" sketch:type="MSShapeGroup" x="0" y="0" width="35" height="35"></rect>
                <circle id="Oval" stroke="#000000" stroke-width="2" sketch:type="MSShapeGroup" cx="17.5" cy="17.5" r="17.5"></circle>
                <path d="M10.4296404,15.0594799 C10.6510274,15.204045 11.3183048,15.6335242 12.4315925,16.3475846 C13.5448801,17.061645 14.3977055,17.6115026 14.9901884,17.9970464 C15.055274,18.0393175 15.1935959,18.1311824 15.4051541,18.2727518 C15.6167123,18.4144323 15.7925514,18.5290414 15.9324315,18.6163574 C16.0724315,18.7036733 16.2416781,18.8016403 16.4402911,18.9100363 C16.6389041,19.0184324 16.8261301,19.0998681 17.0018493,19.1538997 C17.1776884,19.2082642 17.3404623,19.2352245 17.4901712,19.2352245 L17.5,19.2352245 L17.5098288,19.2352245 C17.6595377,19.2352245 17.8223116,19.2082642 17.9981507,19.1538997 C18.1738699,19.0998681 18.3612158,19.0183215 18.5597089,18.9100363 C18.7582021,18.8015293 18.9274486,18.7036733 19.0674486,18.6163574 C19.2074486,18.5290414 19.3831678,18.4144323 19.594726,18.2727518 C19.8062842,18.1310714 19.944726,18.0393175 20.0098116,17.9970464 C20.6086473,17.6113917 22.132226,16.6321658 24.5800685,15.059258 C25.0553253,14.7520434 25.4523116,14.3813666 25.771387,13.9474495 C26.0905822,13.5137544 26.25,13.0587572 26.25,12.5826799 C26.25,12.1849319 26.0952568,11.8444329 25.7860103,11.561183 C25.4767637,11.2779331 25.1104623,11.1363636 24.6874658,11.1363636 L10.3124144,11.1363636 C9.81114726,11.1363636 9.42542808,11.293022 9.15525685,11.6063388 C8.88508562,11.9197665 8.75,12.3115234 8.75,12.7814985 C8.75,13.1611621 8.92907534,13.5725567 9.28710616,14.0154606 C9.64513699,14.4583644 10.0260616,14.8064079 10.4296404,15.0594799 Z M25.2733562,16.0266124 C23.1381164,17.3643108 21.5168493,18.4038922 20.410274,19.1451349 C20.0391781,19.3982069 19.7380822,19.5956941 19.5068664,19.7371526 C19.2757705,19.8788331 18.9682021,20.0233981 18.5840411,20.1710697 C18.2,20.3187413 17.8419692,20.3925216 17.5099486,20.3925216 L17.5,20.3925216 L17.4901712,20.3925216 C17.1581507,20.3925216 16.8,20.3187413 16.4159589,20.1710697 C16.0319178,20.0233981 15.7242295,19.8788331 15.4931336,19.7371526 C15.2620377,19.5956941 14.9609418,19.3982069 14.5898459,19.1451349 C13.7108904,18.5485682 12.0930993,17.5089868 9.73635274,16.0266124 C9.36525685,15.797727 9.0364726,15.5354463 8.75,15.240214 L8.75,22.4172091 C8.75,22.8150681 8.90294521,23.1554562 9.20895548,23.4387061 C9.51496575,23.7220669 9.88282534,23.8636364 10.3125342,23.8636364 L24.6875856,23.8636364 C25.1171747,23.8636364 25.4850342,23.7220669 25.7910445,23.4387061 C26.0971747,23.1553452 26.25,22.8150681 26.25,22.4172091 L26.25,15.240214 C25.97,15.5293441 25.6445719,15.7916249 25.2733562,16.0266124 Z" id="Shape" fill="#000000" sketch:type="MSShapeGroup"></path>
            </g>
        </g>
    </g>
</svg>