<?xml version="1.0" encoding="UTF-8" standalone="no"?>
<svg width="22px" height="22px" viewBox="0 0 22 22" version="1.1" xmlns="http://www.w3.org/2000/svg" xmlns:xlink="http://www.w3.org/1999/xlink" xmlns:sketch="http://www.bohemiancoding.com/sketch/ns">
    <!-- Generator: Sketch 3.3.3 (12081) - http://www.bohemiancoding.com/sketch -->
    <title>Shape</title>
    <desc>Created with Sketch.</desc>
    <defs></defs>
    <g id="Page-1" stroke="none" stroke-width="1" fill="none" fill-rule="evenodd" sketch:type="MSPage">
        <g id="1471714512_add" sketch:type="MSLayerGroup" transform="translate(11.000000, 11.000000) rotate(-45.000000) translate(-11.000000, -11.000000) translate(-3.000000, -3.000000)" fill="#FFFFFF">
            <path d="M26,12 L16,12 L16,2 C16,0.896 15.104,0 14,0 C12.896,0 12,0.896 12,2 L12,12 L2,12 C0.896,12 0,12.896 0,14 C0,15.104 0.896,16 2,16 L12,16 L12,26 C12,27.104 12.896,28 14,28 C15.104,28 16,27.104 16,26 L16,16 L26,16 C27.104,16 28,15.104 28,14 C28,12.896 27.104,12 26,12 L26,12 Z" id="Shape" sketch:type="MSShapeGroup"></path>
        </g>
    </g>
</svg>